<svg height="40.001" viewBox="0 0 189.374 40.001" width="189.374" xmlns="http://www.w3.org/2000/svg"><path d="m30 64.508 11.421-23.52 6.449 12.361 14.83-21.842 15.532 33z" transform="translate(-30 -24.507)"/><path d="m0 0h10v10h-10z" fill="#e6553b"/><path d="m.615 3.906 3.864-40h13.568l3.8 40h-7.573l-.568-6.455h-4.818l-.5 6.455zm8.841-12.841h3.636l-1.75-20.341h-.364zm14.844 12.841v-40h12.27a6.771 6.771 0 0 1 4.636 1.4 7.009 7.009 0 0 1 2.1 3.909 28.644 28.644 0 0 1 .534 5.9 13.617 13.617 0 0 1 -.83 5.227 4.794 4.794 0 0 1 -3.125 2.7 3.584 3.584 0 0 1 2.648 1.875 8.459 8.459 0 0 1 .767 3.853v15.136h-7.889v-15.659q0-1.75-.716-2.17a4.759 4.759 0 0 0 -2.307-.42v18.249zm8.136-25.182h1.932q1.659 0 1.659-3.614a8.188 8.188 0 0 0 -.364-3.068 1.381 1.381 0 0 0 -1.364-.727h-1.866zm17.475 25.182v-32.318h-4.75v-7.682h17.5v7.682h-4.75v32.318zm25.886 0v-40h8.227l3.682 19.159v-19.159h7.727v40h-7.818l-4-20v20zm23.182 0v-40h16v7.8h-7.955v6.364h7.545v7.7h-7.545v18.136zm22 0v-32.318h-4.75v-7.682h17.5v7.682h-4.75v32.318z" transform="translate(55.645 36.094)"/></svg>